<svg xmlns="http://www.w3.org/2000/svg" xml:space="preserve" style="enable-background:new 0 0 94 94" viewBox="0 0 94 94"><style>.st5{stroke:#000;stroke-linecap:round;stroke-linejoin:round;stroke-miterlimit:10}.st37{fill:#d0e6fb}.st44,.st87{fill:#e8e9fe;stroke:#000;stroke-linecap:round;stroke-linejoin:round;stroke-miterlimit:10}.st87{fill:#010101}</style><g id="Icons"><path d="M81.17 65.97H8.04C4.7 65.97 2 63.27 2 59.93v-42.3c0-3.33 2.7-6.04 6.04-6.04h73.13c3.33 0 6.04 2.7 6.04 6.04v42.3c-.01 3.34-2.71 6.04-6.04 6.04z" class="st87"/><path d="M85.96 65.97H12.83c-3.33 0-6.04-2.7-6.04-6.04v-42.3c0-3.33 2.7-6.04 6.04-6.04h73.13c3.33 0 6.04 2.7 6.04 6.04v42.3c0 3.34-2.7 6.04-6.04 6.04z" style="fill:#75d95d;stroke:#000;stroke-linecap:round;stroke-linejoin:round;stroke-miterlimit:10"/><path d="M27.11 1.08h44.58v75.4H27.11z" style="fill:#fff;stroke:#000;stroke-linecap:round;stroke-linejoin:round;stroke-miterlimit:10" transform="rotate(90 49.398 38.781)"/><path d="M57.83 18.18H37.89c-1.18 0-2.13-.95-2.13-2.13v-3.59c0-1.18.95-2.13 2.13-2.13h19.94c1.18 0 2.13.95 2.13 2.13v3.59c0 1.17-.95 2.13-2.13 2.13z" class="st87"/><path d="M39 13.83h18.17" style="fill:#75d95d;stroke:#fff;stroke-linecap:round;stroke-linejoin:round;stroke-miterlimit:10"/><path d="M25.56 39c-5.68-.52-10.48 3.26-10.48 9.32 0 .55.04 1.09.12 1.63.17 1.16 1.11 2 2.18 2h8.17V39z" class="st5"/><path d="M27.03 25.62c-.34-.06-2.15 0-2.51 0-3.37 0-6.1 2.98-6.1 6.66s2.73 6.66 6.1 6.66c.35 0 .7-.04 1.04-.1l1.47-13.22z" class="st5"/><path d="M36.35 49.93c.28-1.96.08-4-.83-5.93-1.34-2.84-4.02-4.56-6.93-4.96-5.91-.82-11.01 3.02-11.01 9.27 0 .55.04 1.09.12 1.63.17 1.16 1.11 2 2.18 2h14.27c1.09 0 2.03-.84 2.2-2.01z" style="fill:#94f279;stroke:#000;stroke-linecap:round;stroke-linejoin:round;stroke-miterlimit:10"/><ellipse cx="27.03" cy="32.28" rx="6.1" ry="6.66" style="fill:#fcd4ca;stroke:#000;stroke-linecap:round;stroke-linejoin:round;stroke-miterlimit:10"/><path d="M70.28 28.62H42.09c-.83 0-1.5-.67-1.5-1.5s.67-1.5 1.5-1.5h28.19c.83 0 1.5.67 1.5 1.5-.01.83-.68 1.5-1.5 1.5zM80.03 36.07H42.09c-.83 0-1.5-.67-1.5-1.5s.67-1.5 1.5-1.5h37.94c.83 0 1.5.67 1.5 1.5s-.67 1.5-1.5 1.5zM67.06 43.52H42.09c-.83 0-1.5-.67-1.5-1.5s.67-1.5 1.5-1.5h24.97c.83 0 1.5.67 1.5 1.5s-.67 1.5-1.5 1.5zM80.03 50.97H42.09c-.83 0-1.5-.67-1.5-1.5s.67-1.5 1.5-1.5h37.94c.83 0 1.5.67 1.5 1.5 0 .82-.67 1.5-1.5 1.5z" class="st37"/><path d="M66.47 55.06c-.69 0-1.36.07-2.02.16v28.3c.66.09 1.34.16 2.02.16 7.9 0 14.31-6.41 14.31-14.31s-6.4-14.31-14.31-14.31z" class="st5"/><path d="M66.47 57.57c-.69 0-1.37.07-2.02.19v23.23c.66.11 1.33.19 2.02.19 6.51 0 11.8-5.29 11.8-11.8 0-6.52-5.29-11.81-11.8-11.81z" class="st5"/><path d="M66.47 57.57c-.69 0-1.37.07-2.02.19v23.23c.66.11 1.33.19 2.02.19.16 0 .32-.02.48-.02V57.6c-.16-.01-.32-.03-.48-.03z" class="st5"/><path d="M74.04 66.84a2.83 2.83 0 0 0-3.88-.98l-5.55 3.31-.16-.27v6.85c.21-.07.43-.15.63-.27l7.98-4.75c1.34-.81 1.78-2.55.98-3.89z" class="st5"/><circle cx="64.17" cy="69.37" r="14.31" class="st44"/><path d="M64.17 81.17c-6.51 0-11.8-5.29-11.8-11.8s5.29-11.8 11.8-11.8c6.51 0 11.8 5.29 11.8 11.8s-5.3 11.8-11.8 11.8z" style="fill:#b4b2fb"/><path d="M64.65 57.6c-.16-.01-.32-.02-.48-.02-6.51 0-11.8 5.29-11.8 11.8s5.29 11.8 11.8 11.8c.16 0 .32-.02.48-.02V57.6z" style="fill:#4949f7"/><path d="M61.32 75.87c-.96 0-1.91-.49-2.43-1.38l-2.29-3.85c-.8-1.34-.36-3.08.98-3.88 1.34-.8 3.08-.36 3.88.98l.84 1.42 5.55-3.31a2.83 2.83 0 0 1 2.9 4.86l-7.98 4.75c-.45.29-.95.41-1.45.41z" class="st44"/></g></svg>

